<mxfile host="app.diagrams.net" modified="2023-04-12T08:38:10.896Z" agent="Mozilla/5.0 (Windows NT 10.0; Win64; x64) AppleWebKit/537.36 (KHTML, like Gecko) Chrome/111.0.0.0 Safari/537.36" version="21.1.6" etag="Cq_2tqBBlwqdjeLVLRNX" type="github">
  <diagram name="Page-1" id="n2d0vgvp-Uka55Qokzz8">
    <mxGraphModel>
      <root>
        <mxCell id="0" />
        <mxCell id="1" parent="0" />
      </root>
    </mxGraphModel>
  </diagram>
</mxfile>
